G04 Layer: TopLayer*
G04 EasyEDA v6.5.22, 2023-01-10 12:32:39*
G04 b370202723584046b7ae4b0ba92148f9,2e4b97ed0a384ad5b60706015a639cab,10*
G04 Gerber Generator version 0.2*
G04 Scale: 100 percent, Rotated: No, Reflected: No *
G04 Dimensions in millimeters *
G04 leading zeros omitted , absolute positions ,4 integer and 5 decimal *
%FSLAX45Y45*%
%MOMM*%

%AMMACRO1*21,1,$1,$2,0,0,$3*%
%ADD10C,0.2540*%
%ADD11MACRO1,1X1.1X0.0000*%
%ADD12R,1.5000X1.5000*%
%ADD13C,1.5000*%

%LPD*%
D10*
X1143000Y9998608D02*
G01*
X1143000Y9321800D01*
X901700Y9080500D01*
X901700Y8521700D01*
X889000Y8509000D01*
X889000Y9998608D02*
G01*
X381000Y9490608D01*
X381000Y8509000D01*
X1651000Y9998608D02*
G01*
X1651000Y9067800D01*
X1917700Y8801100D01*
X1917700Y8521700D01*
X1905000Y8509000D01*
X1778000Y9998608D02*
G01*
X1778000Y9740900D01*
X2146300Y9372600D01*
X2146300Y8521700D01*
X2159000Y8509000D01*
X1524000Y9998608D02*
G01*
X1524000Y8928100D01*
X1651000Y8801100D01*
X1651000Y8509000D01*
X1397000Y9998608D02*
G01*
X1397000Y8509000D01*
X1270000Y9998608D02*
G01*
X1270000Y8940800D01*
X1130300Y8801100D01*
X1130300Y8521700D01*
X1143000Y8509000D01*
X1016000Y9998608D02*
G01*
X1016000Y9728200D01*
X622300Y9334500D01*
X622300Y8521700D01*
X635000Y8509000D01*
D11*
G01*
X1778000Y9998598D03*
G01*
X1651000Y9998598D03*
G01*
X1524000Y9998598D03*
G01*
X1397000Y9998598D03*
G01*
X1270000Y9998598D03*
G01*
X1143000Y9998598D03*
G01*
X1016000Y9998598D03*
G01*
X889000Y9998598D03*
G01*
X889000Y9508601D03*
G01*
X1016000Y9508601D03*
G01*
X1143000Y9508601D03*
G01*
X1270000Y9508601D03*
G01*
X1397000Y9508601D03*
G01*
X1524000Y9508601D03*
G01*
X1651000Y9508601D03*
G01*
X1778000Y9508601D03*
D12*
G01*
X381000Y8509000D03*
D13*
G01*
X635000Y8509000D03*
G01*
X889000Y8509000D03*
G01*
X1143000Y8509000D03*
G01*
X1397000Y8509000D03*
G01*
X1651000Y8509000D03*
G01*
X1905000Y8509000D03*
G01*
X2159000Y8509000D03*
M02*
