G04 Layer: TopSilkscreenLayer*
G04 EasyEDA v6.5.22, 2023-01-10 12:32:39*
G04 b370202723584046b7ae4b0ba92148f9,2e4b97ed0a384ad5b60706015a639cab,10*
G04 Gerber Generator version 0.2*
G04 Scale: 100 percent, Rotated: No, Reflected: No *
G04 Dimensions in millimeters *
G04 leading zeros omitted , absolute positions ,4 integer and 5 decimal *
%FSLAX45Y45*%
%MOMM*%

%ADD10C,0.1524*%
%ADD11C,0.2540*%
%ADD12C,0.3000*%

%LPD*%
D10*
X1244600Y8776715D02*
G01*
X1244600Y8698737D01*
X1249679Y8683244D01*
X1260094Y8672829D01*
X1275842Y8667750D01*
X1286255Y8667750D01*
X1301750Y8672829D01*
X1312163Y8683244D01*
X1317244Y8698737D01*
X1317244Y8776715D01*
X1356868Y8750808D02*
G01*
X1356868Y8755887D01*
X1361947Y8766302D01*
X1367281Y8771636D01*
X1377695Y8776715D01*
X1398270Y8776715D01*
X1408684Y8771636D01*
X1414018Y8766302D01*
X1419097Y8755887D01*
X1419097Y8745474D01*
X1414018Y8735060D01*
X1403604Y8719565D01*
X1351534Y8667750D01*
X1424431Y8667750D01*
X1346200Y9308084D02*
G01*
X1346200Y9386062D01*
X1341120Y9401555D01*
X1330705Y9411970D01*
X1314957Y9417050D01*
X1304544Y9417050D01*
X1289050Y9411970D01*
X1278636Y9401555D01*
X1273555Y9386062D01*
X1273555Y9308084D01*
X1239265Y9328912D02*
G01*
X1228852Y9323578D01*
X1213104Y9308084D01*
X1213104Y9417050D01*
G36*
X1718513Y9798608D02*
G01*
X1718513Y9778593D01*
X1803501Y9778593D01*
X1803501Y9798608D01*
G37*
G36*
X1751025Y9831070D02*
G01*
X1751025Y9746081D01*
X1770989Y9746081D01*
X1770989Y9831070D01*
G37*
D11*
X2285997Y8636000D02*
G01*
X2285997Y8382000D01*
X254002Y8382000D01*
X254002Y8636000D01*
X2285997Y8636000D01*
X510352Y8636000D02*
G01*
X510352Y8382000D01*
X1851113Y10053599D02*
G01*
X2093498Y10053599D01*
X2093498Y9478601D01*
X815886Y9453600D02*
G01*
X573501Y9453600D01*
X573501Y10053599D01*
X815886Y10053599D01*
X2093498Y9483600D02*
G01*
X2093498Y9453600D01*
X1851113Y9453600D01*
X1843506Y9628606D02*
G01*
X818514Y9628606D01*
X818514Y9853599D01*
X1843506Y9853599D01*
X1843506Y9628606D01*
D12*
G75*
G01
X1923517Y9968611D02*
G03X1923517Y9968611I-15011J0D01*
M02*
