G04 Layer: TopLayer*
G04 EasyEDA v6.5.22, 2023-01-10 12:38:46*
G04 25b49afb8cf343a198f3b3cb698868e7,2e4b97ed0a384ad5b60706015a639cab,10*
G04 Gerber Generator version 0.2*
G04 Scale: 100 percent, Rotated: No, Reflected: No *
G04 Dimensions in inches *
G04 leading zeros omitted , absolute positions ,3 integer and 6 decimal *
%FSLAX36Y36*%
%MOIN*%

%ADD10C,0.0100*%
%ADD11R,0.0748X0.0935*%
%ADD12R,0.0276X0.0315*%
%ADD13C,0.0709*%
%ADD14R,0.0551X0.0551*%
%ADD15C,0.0551*%
%ADD16R,0.0709X0.0709*%

%LPD*%
D10*
X971649Y-513458D02*
G01*
X973461Y-513458D01*
X1000000Y-540000D01*
X1540000Y-540000D01*
X1584252Y-504600D01*
X1585399Y-504600D01*
X1600000Y-490000D01*
X1600000Y-175000D01*
X1640000Y-135000D01*
X950000Y-480000D02*
G01*
X1520000Y-480000D01*
X1540000Y-460000D01*
X1540000Y-235000D01*
X928350Y-446541D02*
G01*
X928350Y-448350D01*
X950000Y-480000D01*
X971649Y-446541D02*
G01*
X1363461Y-446541D01*
X1390000Y-420000D01*
X1390000Y-185000D01*
X1440000Y-135000D01*
X940000Y-2135000D02*
G01*
X935000Y-2135000D01*
X890000Y-2090000D01*
X770000Y-2090000D01*
X710000Y-2030000D01*
X710000Y-1800000D01*
X930000Y-1580000D01*
X928301Y-580000D01*
X928301Y-503501D01*
X3260000Y-1430000D02*
G01*
X3150000Y-1430000D01*
X3040000Y-1540000D01*
X3040000Y-2035000D01*
X3260000Y-1030000D02*
G01*
X3070000Y-1030000D01*
X3070000Y-1027366D01*
X2972632Y-930000D01*
X954751Y-1880000D02*
G01*
X954751Y-1805248D01*
X1070000Y-1690000D01*
X1070000Y-1040000D01*
X1180000Y-930000D01*
X3260000Y-930000D01*
X805248Y-1880000D02*
G01*
X805248Y-1794751D01*
X990000Y-1610000D01*
X990000Y-920000D01*
X1080000Y-830000D01*
X3260000Y-830000D01*
X940000Y-2035000D02*
G01*
X954751Y-2020248D01*
X954751Y-1880000D01*
X840000Y-2035000D02*
G01*
X805248Y-2000248D01*
X805248Y-1880000D01*
D11*
G01*
X954749Y-1880000D03*
G01*
X805250Y-1880000D03*
D12*
G01*
X971649Y-513460D03*
G01*
X928350Y-513460D03*
G01*
X928350Y-446539D03*
G01*
X971649Y-446539D03*
D13*
G01*
X1780000Y-688739D03*
G01*
X1780000Y-531260D03*
D14*
G01*
X840000Y-235000D03*
D15*
G01*
X840000Y-135000D03*
G01*
X940000Y-235000D03*
G01*
X940000Y-135000D03*
G01*
X1040000Y-235000D03*
G01*
X1040000Y-135000D03*
G01*
X1140000Y-235000D03*
G01*
X1140000Y-135000D03*
G01*
X1240000Y-235000D03*
G01*
X1240000Y-135000D03*
G01*
X1340000Y-235000D03*
G01*
X1340000Y-135000D03*
G01*
X1440000Y-235000D03*
G01*
X1440000Y-135000D03*
G01*
X1540000Y-235000D03*
G01*
X1540000Y-135000D03*
G01*
X1640000Y-235000D03*
G01*
X1640000Y-135000D03*
G01*
X1740000Y-235000D03*
G01*
X1740000Y-135000D03*
G01*
X1840000Y-235000D03*
G01*
X1840000Y-135000D03*
G01*
X1940000Y-235000D03*
G01*
X1940000Y-135000D03*
G01*
X2040000Y-235000D03*
G01*
X2040000Y-135000D03*
G01*
X2140000Y-235000D03*
G01*
X2140000Y-135000D03*
G01*
X2240000Y-235000D03*
G01*
X2240000Y-135000D03*
G01*
X2340000Y-235000D03*
G01*
X2340000Y-135000D03*
G01*
X2440000Y-235000D03*
G01*
X2440000Y-135000D03*
G01*
X2540000Y-235000D03*
G01*
X2540000Y-135000D03*
G01*
X2640000Y-235000D03*
G01*
X2640000Y-135000D03*
G01*
X2740000Y-235000D03*
G01*
X2740000Y-135000D03*
G01*
X2840000Y-235000D03*
G01*
X2840000Y-135000D03*
G01*
X2940000Y-235000D03*
G01*
X2940000Y-135000D03*
G01*
X3040000Y-235000D03*
G01*
X3040000Y-135000D03*
D14*
G01*
X840000Y-2135000D03*
D15*
G01*
X840000Y-2035000D03*
G01*
X940000Y-2135000D03*
G01*
X940000Y-2035000D03*
G01*
X1040000Y-2135000D03*
G01*
X1040000Y-2035000D03*
G01*
X1140000Y-2135000D03*
G01*
X1140000Y-2035000D03*
G01*
X1240000Y-2135000D03*
G01*
X1240000Y-2035000D03*
G01*
X1340000Y-2135000D03*
G01*
X1340000Y-2035000D03*
G01*
X1440000Y-2135000D03*
G01*
X1440000Y-2035000D03*
G01*
X1540000Y-2135000D03*
G01*
X1540000Y-2035000D03*
G01*
X1640000Y-2135000D03*
G01*
X1640000Y-2035000D03*
G01*
X1740000Y-2135000D03*
G01*
X1740000Y-2035000D03*
G01*
X1840000Y-2135000D03*
G01*
X1840000Y-2035000D03*
G01*
X1940000Y-2135000D03*
G01*
X1940000Y-2035000D03*
G01*
X2040000Y-2135000D03*
G01*
X2040000Y-2035000D03*
G01*
X2140000Y-2135000D03*
G01*
X2140000Y-2035000D03*
G01*
X2240000Y-2135000D03*
G01*
X2240000Y-2035000D03*
G01*
X2340000Y-2135000D03*
G01*
X2340000Y-2035000D03*
G01*
X2440000Y-2135000D03*
G01*
X2440000Y-2035000D03*
G01*
X2540000Y-2135000D03*
G01*
X2540000Y-2035000D03*
G01*
X2640000Y-2135000D03*
G01*
X2640000Y-2035000D03*
G01*
X2740000Y-2135000D03*
G01*
X2740000Y-2035000D03*
G01*
X2840000Y-2135000D03*
G01*
X2840000Y-2035000D03*
G01*
X2940000Y-2135000D03*
G01*
X2940000Y-2035000D03*
G01*
X3040000Y-2135000D03*
G01*
X3040000Y-2035000D03*
D16*
G01*
X3260000Y-730000D03*
D13*
G01*
X3260000Y-830000D03*
G01*
X3260000Y-930000D03*
G01*
X3260000Y-1030000D03*
G01*
X3260000Y-1130000D03*
G01*
X3260000Y-1230000D03*
G01*
X3260000Y-1330000D03*
G01*
X3260000Y-1430000D03*
M02*
