G04 Layer: BottomLayer*
G04 EasyEDA v6.5.22, 2023-01-10 12:38:46*
G04 25b49afb8cf343a198f3b3cb698868e7,2e4b97ed0a384ad5b60706015a639cab,10*
G04 Gerber Generator version 0.2*
G04 Scale: 100 percent, Rotated: No, Reflected: No *
G04 Dimensions in inches *
G04 leading zeros omitted , absolute positions ,3 integer and 6 decimal *
%FSLAX36Y36*%
%MOIN*%

%ADD10C,0.0100*%
%ADD11C,0.0709*%
%ADD12R,0.0551X0.0551*%
%ADD13C,0.0551*%
%ADD14R,0.0709X0.0709*%

%LPD*%
D10*
X3260000Y-1330000D02*
G01*
X2150000Y-1330000D01*
X2080000Y-1440000D01*
X2080000Y-1910000D01*
X2080000Y-1960000D01*
X2080000Y-2095000D01*
X2040000Y-2135000D01*
X1780000Y-688739D02*
G01*
X978739Y-688739D01*
X840000Y-550000D01*
X840000Y-235000D01*
X1780000Y-531260D02*
G01*
X1780000Y-175000D01*
X1740000Y-135000D01*
D11*
G01*
X1780000Y-688739D03*
G01*
X1780000Y-531260D03*
D12*
G01*
X840000Y-235000D03*
D13*
G01*
X840000Y-135000D03*
G01*
X940000Y-235000D03*
G01*
X940000Y-135000D03*
G01*
X1040000Y-235000D03*
G01*
X1040000Y-135000D03*
G01*
X1140000Y-235000D03*
G01*
X1140000Y-135000D03*
G01*
X1240000Y-235000D03*
G01*
X1240000Y-135000D03*
G01*
X1340000Y-235000D03*
G01*
X1340000Y-135000D03*
G01*
X1440000Y-235000D03*
G01*
X1440000Y-135000D03*
G01*
X1540000Y-235000D03*
G01*
X1540000Y-135000D03*
G01*
X1640000Y-235000D03*
G01*
X1640000Y-135000D03*
G01*
X1740000Y-235000D03*
G01*
X1740000Y-135000D03*
G01*
X1840000Y-235000D03*
G01*
X1840000Y-135000D03*
G01*
X1940000Y-235000D03*
G01*
X1940000Y-135000D03*
G01*
X2040000Y-235000D03*
G01*
X2040000Y-135000D03*
G01*
X2140000Y-235000D03*
G01*
X2140000Y-135000D03*
G01*
X2240000Y-235000D03*
G01*
X2240000Y-135000D03*
G01*
X2340000Y-235000D03*
G01*
X2340000Y-135000D03*
G01*
X2440000Y-235000D03*
G01*
X2440000Y-135000D03*
G01*
X2540000Y-235000D03*
G01*
X2540000Y-135000D03*
G01*
X2640000Y-235000D03*
G01*
X2640000Y-135000D03*
G01*
X2740000Y-235000D03*
G01*
X2740000Y-135000D03*
G01*
X2840000Y-235000D03*
G01*
X2840000Y-135000D03*
G01*
X2940000Y-235000D03*
G01*
X2940000Y-135000D03*
G01*
X3040000Y-235000D03*
G01*
X3040000Y-135000D03*
D12*
G01*
X840000Y-2135000D03*
D13*
G01*
X840000Y-2035000D03*
G01*
X940000Y-2135000D03*
G01*
X940000Y-2035000D03*
G01*
X1040000Y-2135000D03*
G01*
X1040000Y-2035000D03*
G01*
X1140000Y-2135000D03*
G01*
X1140000Y-2035000D03*
G01*
X1240000Y-2135000D03*
G01*
X1240000Y-2035000D03*
G01*
X1340000Y-2135000D03*
G01*
X1340000Y-2035000D03*
G01*
X1440000Y-2135000D03*
G01*
X1440000Y-2035000D03*
G01*
X1540000Y-2135000D03*
G01*
X1540000Y-2035000D03*
G01*
X1640000Y-2135000D03*
G01*
X1640000Y-2035000D03*
G01*
X1740000Y-2135000D03*
G01*
X1740000Y-2035000D03*
G01*
X1840000Y-2135000D03*
G01*
X1840000Y-2035000D03*
G01*
X1940000Y-2135000D03*
G01*
X1940000Y-2035000D03*
G01*
X2040000Y-2135000D03*
G01*
X2040000Y-2035000D03*
G01*
X2140000Y-2135000D03*
G01*
X2140000Y-2035000D03*
G01*
X2240000Y-2135000D03*
G01*
X2240000Y-2035000D03*
G01*
X2340000Y-2135000D03*
G01*
X2340000Y-2035000D03*
G01*
X2440000Y-2135000D03*
G01*
X2440000Y-2035000D03*
G01*
X2540000Y-2135000D03*
G01*
X2540000Y-2035000D03*
G01*
X2640000Y-2135000D03*
G01*
X2640000Y-2035000D03*
G01*
X2740000Y-2135000D03*
G01*
X2740000Y-2035000D03*
G01*
X2840000Y-2135000D03*
G01*
X2840000Y-2035000D03*
G01*
X2940000Y-2135000D03*
G01*
X2940000Y-2035000D03*
G01*
X3040000Y-2135000D03*
G01*
X3040000Y-2035000D03*
D14*
G01*
X3260000Y-730000D03*
D11*
G01*
X3260000Y-830000D03*
G01*
X3260000Y-930000D03*
G01*
X3260000Y-1030000D03*
G01*
X3260000Y-1130000D03*
G01*
X3260000Y-1230000D03*
G01*
X3260000Y-1330000D03*
G01*
X3260000Y-1430000D03*
M02*
