M48
INCH,LZ
;FILE_FORMAT=2:4
;TYPE=PLATED
;Layer: PTH_Through
;EasyEDA v6.5.22, 2023-01-10 12:32:39
;1e824566333e41a2b08e8a3146a8d8cc,2e4b97ed0a384ad5b60706015a639cab,10
;Gerber Generator version 0.2
;Holesize 1 = 0.0320 inch
T01C0.0320
;Holesize 2 = 0.0390 inch
T02C0.0390
;Holesize 3 = 0.0470 inch
T03C0.0470
%
G05
G90
T01
X009794Y-018000
X009006Y-018000
T02
X017800Y-006887
X017800Y-005313
X008400Y-002350
X008400Y-001350
X009400Y-002350
X009400Y-001350
X010400Y-002350
X010400Y-001350
X011400Y-002350
X011400Y-001350
X012400Y-002350
X012400Y-001350
X013400Y-002350
X013400Y-001350
X014400Y-002350
X014400Y-001350
X015400Y-002350
X015400Y-001350
X016400Y-002350
X016400Y-001350
X017400Y-002350
X017400Y-001350
X018400Y-002350
X018400Y-001350
X019400Y-002350
X019400Y-001350
X020400Y-002350
X020400Y-001350
X021400Y-002350
X021400Y-001350
X022400Y-002350
X022400Y-001350
X023400Y-002350
X023400Y-001350
X024400Y-002350
X024400Y-001350
X025400Y-002350
X025400Y-001350
X026400Y-002350
X026400Y-001350
X027400Y-002350
X027400Y-001350
X028400Y-002350
X028400Y-001350
X029400Y-002350
X029400Y-001350
X030400Y-002350
X030400Y-001350
X008400Y-021350
X008400Y-020350
X009400Y-021350
X009400Y-020350
X010400Y-021350
X010400Y-020350
X011400Y-021350
X011400Y-020350
X012400Y-021350
X012400Y-020350
X013400Y-021350
X013400Y-020350
X014400Y-021350
X014400Y-020350
X015400Y-021350
X015400Y-020350
X016400Y-021350
X016400Y-020350
X017400Y-021350
X017400Y-020350
X018400Y-021350
X018400Y-020350
X019400Y-021350
X019400Y-020350
X020400Y-021350
X020400Y-020350
X021400Y-021350
X021400Y-020350
X022400Y-021350
X022400Y-020350
X023400Y-021350
X023400Y-020350
X024400Y-021350
X024400Y-020350
X025400Y-021350
X025400Y-020350
X026400Y-021350
X026400Y-020350
X027400Y-021350
X027400Y-020350
X028400Y-021350
X028400Y-020350
X029400Y-021350
X029400Y-020350
X030400Y-021350
X030400Y-020350
T03
X032600Y-007300
X032600Y-008300
X032600Y-009300
X032600Y-010300
X032600Y-011300
X032600Y-012300
X032600Y-013300
X032600Y-014300
M30
