G04 Layer: BottomSolderMaskLayer*
G04 EasyEDA v6.5.22, 2023-01-10 12:32:39*
G04 1e824566333e41a2b08e8a3146a8d8cc,2e4b97ed0a384ad5b60706015a639cab,10*
G04 Gerber Generator version 0.2*
G04 Scale: 100 percent, Rotated: No, Reflected: No *
G04 Dimensions in inches *
G04 leading zeros omitted , absolute positions ,3 integer and 6 decimal *
%FSLAX36Y36*%
%MOIN*%

%AMMACRO1*1,1,$1,$2,$3*1,1,$1,$4,$5*1,1,$1,0-$2,0-$3*1,1,$1,0-$4,0-$5*20,1,$1,$2,$3,$4,$5,0*20,1,$1,$4,$5,0-$2,0-$3,0*20,1,$1,0-$2,0-$3,0-$4,0-$5,0*20,1,$1,0-$4,0-$5,$2,$3,0*4,1,4,$2,$3,$4,$5,0-$2,0-$3,0-$4,0-$5,$2,$3,0*%
%ADD10C,0.0749*%
%ADD11MACRO1,0.004X-0.0276X0.0276X0.0276X0.0276*%
%ADD12C,0.0591*%
%ADD13MACRO1,0.004X0.0354X0.0354X0.0354X-0.0354*%
%ADD14C,0.0552*%

%LPD*%
D10*
G01*
X1780000Y-688739D03*
G01*
X1780000Y-531260D03*
D11*
G01*
X840000Y-235000D03*
D12*
G01*
X840000Y-135000D03*
G01*
X940000Y-235000D03*
G01*
X940000Y-135000D03*
G01*
X1040000Y-235000D03*
G01*
X1040000Y-135000D03*
G01*
X1140000Y-235000D03*
G01*
X1140000Y-135000D03*
G01*
X1240000Y-235000D03*
G01*
X1240000Y-135000D03*
G01*
X1340000Y-235000D03*
G01*
X1340000Y-135000D03*
G01*
X1440000Y-235000D03*
G01*
X1440000Y-135000D03*
G01*
X1540000Y-235000D03*
G01*
X1540000Y-135000D03*
G01*
X1640000Y-235000D03*
G01*
X1640000Y-135000D03*
G01*
X1740000Y-235000D03*
G01*
X1740000Y-135000D03*
G01*
X1840000Y-235000D03*
G01*
X1840000Y-135000D03*
G01*
X1940000Y-235000D03*
G01*
X1940000Y-135000D03*
G01*
X2040000Y-235000D03*
G01*
X2040000Y-135000D03*
G01*
X2140000Y-235000D03*
G01*
X2140000Y-135000D03*
G01*
X2240000Y-235000D03*
G01*
X2240000Y-135000D03*
G01*
X2340000Y-235000D03*
G01*
X2340000Y-135000D03*
G01*
X2440000Y-235000D03*
G01*
X2440000Y-135000D03*
G01*
X2540000Y-235000D03*
G01*
X2540000Y-135000D03*
G01*
X2640000Y-235000D03*
G01*
X2640000Y-135000D03*
G01*
X2740000Y-235000D03*
G01*
X2740000Y-135000D03*
G01*
X2840000Y-235000D03*
G01*
X2840000Y-135000D03*
G01*
X2940000Y-235000D03*
G01*
X2940000Y-135000D03*
G01*
X3040000Y-235000D03*
G01*
X3040000Y-135000D03*
D11*
G01*
X840000Y-2135000D03*
D12*
G01*
X840000Y-2035000D03*
G01*
X940000Y-2135000D03*
G01*
X940000Y-2035000D03*
G01*
X1040000Y-2135000D03*
G01*
X1040000Y-2035000D03*
G01*
X1140000Y-2135000D03*
G01*
X1140000Y-2035000D03*
G01*
X1240000Y-2135000D03*
G01*
X1240000Y-2035000D03*
G01*
X1340000Y-2135000D03*
G01*
X1340000Y-2035000D03*
G01*
X1440000Y-2135000D03*
G01*
X1440000Y-2035000D03*
G01*
X1540000Y-2135000D03*
G01*
X1540000Y-2035000D03*
G01*
X1640000Y-2135000D03*
G01*
X1640000Y-2035000D03*
G01*
X1740000Y-2135000D03*
G01*
X1740000Y-2035000D03*
G01*
X1840000Y-2135000D03*
G01*
X1840000Y-2035000D03*
G01*
X1940000Y-2135000D03*
G01*
X1940000Y-2035000D03*
G01*
X2040000Y-2135000D03*
G01*
X2040000Y-2035000D03*
G01*
X2140000Y-2135000D03*
G01*
X2140000Y-2035000D03*
G01*
X2240000Y-2135000D03*
G01*
X2240000Y-2035000D03*
G01*
X2340000Y-2135000D03*
G01*
X2340000Y-2035000D03*
G01*
X2440000Y-2135000D03*
G01*
X2440000Y-2035000D03*
G01*
X2540000Y-2135000D03*
G01*
X2540000Y-2035000D03*
G01*
X2640000Y-2135000D03*
G01*
X2640000Y-2035000D03*
G01*
X2740000Y-2135000D03*
G01*
X2740000Y-2035000D03*
G01*
X2840000Y-2135000D03*
G01*
X2840000Y-2035000D03*
G01*
X2940000Y-2135000D03*
G01*
X2940000Y-2035000D03*
G01*
X3040000Y-2135000D03*
G01*
X3040000Y-2035000D03*
D13*
G01*
X3260000Y-730000D03*
D10*
G01*
X3260000Y-830000D03*
G01*
X3260000Y-930000D03*
G01*
X3260000Y-1030000D03*
G01*
X3260000Y-1130000D03*
G01*
X3260000Y-1230000D03*
G01*
X3260000Y-1330000D03*
G01*
X3260000Y-1430000D03*
D14*
G01*
X979369Y-1800000D03*
G01*
X900630Y-1800000D03*
M02*
