G04 Layer: TopSilkscreenLayer*
G04 EasyEDA v6.5.22, 2023-01-10 12:32:39*
G04 1e824566333e41a2b08e8a3146a8d8cc,2e4b97ed0a384ad5b60706015a639cab,10*
G04 Gerber Generator version 0.2*
G04 Scale: 100 percent, Rotated: No, Reflected: No *
G04 Dimensions in inches *
G04 leading zeros omitted , absolute positions ,3 integer and 6 decimal *
%FSLAX36Y36*%
%MOIN*%

%ADD10C,0.0060*%
%ADD11C,0.0080*%
%ADD12C,0.0070*%
%ADD13C,0.0100*%
%ADD14C,0.0059*%
%ADD15C,0.0118*%
%ADD16C,0.0169*%

%LPD*%
D10*
X2015399Y-600000D02*
G01*
X1972500Y-600000D01*
X2015399Y-600000D02*
G01*
X2015399Y-618400D01*
X2013400Y-624499D01*
X2011300Y-626599D01*
X2007200Y-628600D01*
X2003100Y-628600D01*
X1998999Y-626599D01*
X1996999Y-624499D01*
X1995000Y-618400D01*
X1995000Y-600000D02*
G01*
X1995000Y-618400D01*
X1992899Y-624499D01*
X1990900Y-626599D01*
X1986800Y-628600D01*
X1980600Y-628600D01*
X1976499Y-626599D01*
X1974499Y-624499D01*
X1972500Y-618400D01*
X1972500Y-600000D01*
X2015399Y-642100D02*
G01*
X1984700Y-642100D01*
X1978599Y-644200D01*
X1974499Y-648299D01*
X1972500Y-654400D01*
X1972500Y-658499D01*
X1974499Y-664600D01*
X1978599Y-668699D01*
X1984700Y-670799D01*
X2015399Y-670799D01*
X2015399Y-712899D02*
G01*
X1972500Y-684299D01*
X2015399Y-684299D02*
G01*
X2015399Y-712899D01*
X1972500Y-684299D02*
G01*
X1972500Y-712899D01*
X2005200Y-728499D02*
G01*
X2007200Y-728499D01*
X2011300Y-730500D01*
X2013400Y-732500D01*
X2015399Y-736599D01*
X2015399Y-744800D01*
X2013400Y-748899D01*
X2011300Y-750999D01*
X2007200Y-753000D01*
X2003100Y-753000D01*
X1998999Y-750999D01*
X1992899Y-746900D01*
X1972500Y-726399D01*
X1972500Y-755000D01*
D11*
X1794171Y-467044D02*
G01*
X1761971Y-467044D01*
X1778072Y-450945D02*
G01*
X1778072Y-483144D01*
D12*
X3564499Y-1135000D02*
G01*
X3533900Y-1135000D01*
X3527700Y-1136999D01*
X3523599Y-1141100D01*
X3521599Y-1147300D01*
X3521599Y-1151399D01*
X3523599Y-1157500D01*
X3527700Y-1161599D01*
X3533900Y-1163600D01*
X3564499Y-1163600D01*
X3554300Y-1179200D02*
G01*
X3556400Y-1179200D01*
X3560500Y-1181199D01*
X3562500Y-1183299D01*
X3564499Y-1187399D01*
X3564499Y-1195500D01*
X3562500Y-1199600D01*
X3560500Y-1201700D01*
X3556400Y-1203699D01*
X3552299Y-1203699D01*
X3548199Y-1201700D01*
X3541999Y-1197600D01*
X3521599Y-1177100D01*
X3521599Y-1205799D01*
D10*
X3375399Y-1070000D02*
G01*
X3332500Y-1070000D01*
X3375399Y-1098600D02*
G01*
X3332500Y-1098600D01*
X3355000Y-1070000D02*
G01*
X3355000Y-1098600D01*
X3367200Y-1112100D02*
G01*
X3369300Y-1116199D01*
X3375399Y-1122399D01*
X3332500Y-1122399D01*
X1055399Y-490000D02*
G01*
X1012500Y-490000D01*
X1012500Y-490000D02*
G01*
X1012500Y-514499D01*
X1055399Y-528000D02*
G01*
X1012500Y-528000D01*
X1055399Y-528000D02*
G01*
X1055399Y-554600D01*
X1035000Y-528000D02*
G01*
X1035000Y-544400D01*
X1012500Y-528000D02*
G01*
X1012500Y-554600D01*
X1055399Y-568099D02*
G01*
X1012500Y-568099D01*
X1055399Y-568099D02*
G01*
X1055399Y-582500D01*
X1053400Y-588600D01*
X1049300Y-592699D01*
X1045200Y-594699D01*
X1038999Y-596799D01*
X1028800Y-596799D01*
X1022700Y-594699D01*
X1018599Y-592699D01*
X1014499Y-588600D01*
X1012500Y-582500D01*
X1012500Y-568099D01*
X1047200Y-610300D02*
G01*
X1049300Y-614400D01*
X1055399Y-620500D01*
X1012500Y-620500D01*
X918099Y-1945199D02*
G01*
X920100Y-1949299D01*
X924200Y-1953400D01*
X928299Y-1955399D01*
X936500Y-1955399D01*
X940599Y-1953400D01*
X944600Y-1949299D01*
X946700Y-1945199D01*
X948699Y-1939000D01*
X948699Y-1928800D01*
X946700Y-1922699D01*
X944600Y-1918600D01*
X940599Y-1914499D01*
X936500Y-1912500D01*
X928299Y-1912500D01*
X924200Y-1914499D01*
X920100Y-1918600D01*
X918099Y-1922699D01*
X902500Y-1945199D02*
G01*
X902500Y-1947199D01*
X900500Y-1951300D01*
X898400Y-1953400D01*
X894299Y-1955399D01*
X886100Y-1955399D01*
X882100Y-1953400D01*
X880000Y-1951300D01*
X878000Y-1947199D01*
X878000Y-1943099D01*
X880000Y-1939000D01*
X884099Y-1932899D01*
X904600Y-1912500D01*
X875900Y-1912500D01*
G36*
X976280Y-464640D02*
G01*
X989080Y-478040D01*
X989080Y-464640D01*
G37*
G36*
X869360Y-1735000D02*
G01*
X865600Y-1738839D01*
X862060Y-1742880D01*
X858760Y-1747140D01*
X855720Y-1751579D01*
X852960Y-1756200D01*
X850480Y-1760980D01*
X848300Y-1765900D01*
X846400Y-1770940D01*
X844820Y-1776080D01*
X843540Y-1781300D01*
X842580Y-1786600D01*
X841940Y-1791940D01*
X841620Y-1797300D01*
X841620Y-1802700D01*
X841940Y-1808060D01*
X842580Y-1813400D01*
X843540Y-1818700D01*
X844820Y-1823920D01*
X846400Y-1829060D01*
X848300Y-1834100D01*
X850480Y-1839019D01*
X852960Y-1843800D01*
X855720Y-1848420D01*
X858760Y-1852860D01*
X862060Y-1857120D01*
X865600Y-1861160D01*
X869360Y-1865000D01*
G37*
D13*
X790000Y-260000D02*
G01*
X815000Y-285000D01*
X815000Y-285000D02*
G01*
X865000Y-285000D01*
X865000Y-285000D02*
G01*
X890000Y-260000D01*
X890000Y-260000D02*
G01*
X915000Y-285000D01*
X915000Y-285000D02*
G01*
X965000Y-285000D01*
X965000Y-285000D02*
G01*
X990000Y-260000D01*
X990000Y-260000D02*
G01*
X1015000Y-285000D01*
X1015000Y-285000D02*
G01*
X1065000Y-285000D01*
X1065000Y-285000D02*
G01*
X1090000Y-260000D01*
X1090000Y-260000D02*
G01*
X1115000Y-285000D01*
X1115000Y-285000D02*
G01*
X1165000Y-285000D01*
X1165000Y-285000D02*
G01*
X1190000Y-260000D01*
X1190000Y-260000D02*
G01*
X1215000Y-285000D01*
X1215000Y-285000D02*
G01*
X1265000Y-285000D01*
X1265000Y-285000D02*
G01*
X1290000Y-260000D01*
X1290000Y-260000D02*
G01*
X1315000Y-285000D01*
X1315000Y-285000D02*
G01*
X1365000Y-285000D01*
X1365000Y-285000D02*
G01*
X1390000Y-260000D01*
X790000Y-260000D02*
G01*
X790000Y-110000D01*
X790000Y-110000D02*
G01*
X815000Y-85000D01*
X815000Y-85000D02*
G01*
X865000Y-85000D01*
X865000Y-85000D02*
G01*
X890000Y-110000D01*
X890000Y-110000D02*
G01*
X915000Y-85000D01*
X915000Y-85000D02*
G01*
X965000Y-85000D01*
X965000Y-85000D02*
G01*
X990000Y-110000D01*
X990000Y-110000D02*
G01*
X1015000Y-85000D01*
X1015000Y-85000D02*
G01*
X1065000Y-85000D01*
X1065000Y-85000D02*
G01*
X1090000Y-110000D01*
X1090000Y-110000D02*
G01*
X1115000Y-85000D01*
X1115000Y-85000D02*
G01*
X1165000Y-85000D01*
X1165000Y-85000D02*
G01*
X1190000Y-110000D01*
X1190000Y-110000D02*
G01*
X1215000Y-85000D01*
X1215000Y-85000D02*
G01*
X1265000Y-85000D01*
X1265000Y-85000D02*
G01*
X1290000Y-110000D01*
X1290000Y-110000D02*
G01*
X1315000Y-85000D01*
X1315000Y-85000D02*
G01*
X1365000Y-85000D01*
X1365000Y-85000D02*
G01*
X1390000Y-110000D01*
X1390000Y-110000D02*
G01*
X1415000Y-85000D01*
X1415000Y-85000D02*
G01*
X1465000Y-85000D01*
X1465000Y-85000D02*
G01*
X1490000Y-110000D01*
X1490000Y-110000D02*
G01*
X1515000Y-85000D01*
X1515000Y-85000D02*
G01*
X1565000Y-85000D01*
X1565000Y-85000D02*
G01*
X1590000Y-110000D01*
X1590000Y-110000D02*
G01*
X1615000Y-85000D01*
X1615000Y-85000D02*
G01*
X1665000Y-85000D01*
X1665000Y-85000D02*
G01*
X1690000Y-110000D01*
X1690000Y-110000D02*
G01*
X1715000Y-85000D01*
X1715000Y-85000D02*
G01*
X1765000Y-85000D01*
X1765000Y-85000D02*
G01*
X1790000Y-110000D01*
X1790000Y-110000D02*
G01*
X1815000Y-85000D01*
X1815000Y-85000D02*
G01*
X1865000Y-85000D01*
X1865000Y-85000D02*
G01*
X1890000Y-110000D01*
X1890000Y-110000D02*
G01*
X1915000Y-85000D01*
X1915000Y-85000D02*
G01*
X1965000Y-85000D01*
X1990000Y-110000D02*
G01*
X1965000Y-85000D01*
X1990000Y-110000D02*
G01*
X2015000Y-85000D01*
X2065000Y-85000D02*
G01*
X2015000Y-85000D01*
X2065000Y-85000D02*
G01*
X2090000Y-110000D01*
X2090000Y-110000D02*
G01*
X2115000Y-85000D01*
X2165000Y-85000D02*
G01*
X2115000Y-85000D01*
X2165000Y-85000D02*
G01*
X2190000Y-110000D01*
X2190000Y-110000D02*
G01*
X2215000Y-85000D01*
X2265000Y-85000D02*
G01*
X2215000Y-85000D01*
X2265000Y-85000D02*
G01*
X2290000Y-110000D01*
X2290000Y-110000D02*
G01*
X2315000Y-85000D01*
X2365000Y-85000D02*
G01*
X2315000Y-85000D01*
X2365000Y-85000D02*
G01*
X2390000Y-110000D01*
X2390000Y-260000D02*
G01*
X2365000Y-285000D01*
X2315000Y-285000D02*
G01*
X2365000Y-285000D01*
X2315000Y-285000D02*
G01*
X2290000Y-260000D01*
X2290000Y-260000D02*
G01*
X2265000Y-285000D01*
X2215000Y-285000D02*
G01*
X2265000Y-285000D01*
X2215000Y-285000D02*
G01*
X2190000Y-260000D01*
X2190000Y-260000D02*
G01*
X2165000Y-285000D01*
X2165000Y-285000D02*
G01*
X2115000Y-285000D01*
X2090000Y-260000D02*
G01*
X2115000Y-285000D01*
X2090000Y-260000D02*
G01*
X2065000Y-285000D01*
X2065000Y-285000D02*
G01*
X2015000Y-285000D01*
X1990000Y-260000D02*
G01*
X2015000Y-285000D01*
X1990000Y-260000D02*
G01*
X1965000Y-285000D01*
X1965000Y-285000D02*
G01*
X1915000Y-285000D01*
X1890000Y-260000D02*
G01*
X1915000Y-285000D01*
X1890000Y-260000D02*
G01*
X1865000Y-285000D01*
X1865000Y-285000D02*
G01*
X1815000Y-285000D01*
X1790000Y-260000D02*
G01*
X1815000Y-285000D01*
X1790000Y-260000D02*
G01*
X1765000Y-285000D01*
X1765000Y-285000D02*
G01*
X1715000Y-285000D01*
X1690000Y-260000D02*
G01*
X1715000Y-285000D01*
X1690000Y-260000D02*
G01*
X1665000Y-285000D01*
X1665000Y-285000D02*
G01*
X1615000Y-285000D01*
X1590000Y-260000D02*
G01*
X1615000Y-285000D01*
X1590000Y-260000D02*
G01*
X1565000Y-285000D01*
X1565000Y-285000D02*
G01*
X1515000Y-285000D01*
X1490000Y-260000D02*
G01*
X1515000Y-285000D01*
X1490000Y-260000D02*
G01*
X1465000Y-285000D01*
X1465000Y-285000D02*
G01*
X1415000Y-285000D01*
X1390000Y-260000D02*
G01*
X1415000Y-285000D01*
X890000Y-110000D02*
G01*
X890000Y-260000D01*
X990000Y-110000D02*
G01*
X990000Y-260000D01*
X1090000Y-110000D02*
G01*
X1090000Y-260000D01*
X1190000Y-110000D02*
G01*
X1190000Y-260000D01*
X1290000Y-110000D02*
G01*
X1290000Y-260000D01*
X1390000Y-110000D02*
G01*
X1390000Y-260000D01*
X1490000Y-110000D02*
G01*
X1490000Y-260000D01*
X1590000Y-110000D02*
G01*
X1590000Y-260000D01*
X1690000Y-110000D02*
G01*
X1690000Y-260000D01*
X1790000Y-110000D02*
G01*
X1790000Y-260000D01*
X1890000Y-110000D02*
G01*
X1890000Y-260000D01*
X1990000Y-110000D02*
G01*
X1990000Y-260000D01*
X2090000Y-110000D02*
G01*
X2090000Y-260000D01*
X2190000Y-110000D02*
G01*
X2190000Y-260000D01*
X2290000Y-110000D02*
G01*
X2290000Y-260000D01*
X2390000Y-110000D02*
G01*
X2390000Y-260000D01*
X2390000Y-110000D02*
G01*
X2415000Y-85000D01*
X2465000Y-85000D02*
G01*
X2415000Y-85000D01*
X2465000Y-85000D02*
G01*
X2490000Y-110000D01*
X2490000Y-260000D02*
G01*
X2465000Y-285000D01*
X2415000Y-285000D02*
G01*
X2465000Y-285000D01*
X2415000Y-285000D02*
G01*
X2390000Y-260000D01*
X2490000Y-110000D02*
G01*
X2490000Y-260000D01*
X2490000Y-110000D02*
G01*
X2515000Y-85000D01*
X2565000Y-85000D02*
G01*
X2515000Y-85000D01*
X2565000Y-85000D02*
G01*
X2590000Y-110000D01*
X2590000Y-260000D02*
G01*
X2565000Y-285000D01*
X2515000Y-285000D02*
G01*
X2565000Y-285000D01*
X2515000Y-285000D02*
G01*
X2490000Y-260000D01*
X2590000Y-110000D02*
G01*
X2590000Y-260000D01*
X2590000Y-110000D02*
G01*
X2615000Y-85000D01*
X2665000Y-85000D02*
G01*
X2615000Y-85000D01*
X2665000Y-85000D02*
G01*
X2690000Y-110000D01*
X2690000Y-260000D02*
G01*
X2665000Y-285000D01*
X2615000Y-285000D02*
G01*
X2665000Y-285000D01*
X2615000Y-285000D02*
G01*
X2590000Y-260000D01*
X2690000Y-110000D02*
G01*
X2690000Y-260000D01*
X2690000Y-110000D02*
G01*
X2715000Y-85000D01*
X2765000Y-85000D02*
G01*
X2715000Y-85000D01*
X2765000Y-85000D02*
G01*
X2790000Y-110000D01*
X2790000Y-260000D02*
G01*
X2765000Y-285000D01*
X2715000Y-285000D02*
G01*
X2765000Y-285000D01*
X2715000Y-285000D02*
G01*
X2690000Y-260000D01*
X2790000Y-110000D02*
G01*
X2790000Y-260000D01*
X2790000Y-110000D02*
G01*
X2815000Y-85000D01*
X2865000Y-85000D02*
G01*
X2815000Y-85000D01*
X2865000Y-85000D02*
G01*
X2890000Y-110000D01*
X2890000Y-260000D02*
G01*
X2865000Y-285000D01*
X2815000Y-285000D02*
G01*
X2865000Y-285000D01*
X2815000Y-285000D02*
G01*
X2790000Y-260000D01*
X2890000Y-110000D02*
G01*
X2890000Y-260000D01*
X2890000Y-110000D02*
G01*
X2915000Y-85000D01*
X2965000Y-85000D02*
G01*
X2915000Y-85000D01*
X2965000Y-85000D02*
G01*
X2990000Y-110000D01*
X2990000Y-260000D02*
G01*
X2965000Y-285000D01*
X2915000Y-285000D02*
G01*
X2965000Y-285000D01*
X2915000Y-285000D02*
G01*
X2890000Y-260000D01*
X2990000Y-110000D02*
G01*
X2990000Y-260000D01*
X2990000Y-110000D02*
G01*
X3015000Y-85000D01*
X3065000Y-85000D02*
G01*
X3015000Y-85000D01*
X3065000Y-85000D02*
G01*
X3090000Y-110000D01*
X3090000Y-260000D02*
G01*
X3065000Y-285000D01*
X3015000Y-285000D02*
G01*
X3065000Y-285000D01*
X3015000Y-285000D02*
G01*
X2990000Y-260000D01*
X3090000Y-110000D02*
G01*
X3090000Y-260000D01*
X790000Y-2160000D02*
G01*
X815000Y-2185000D01*
X815000Y-2185000D02*
G01*
X865000Y-2185000D01*
X865000Y-2185000D02*
G01*
X890000Y-2160000D01*
X890000Y-2160000D02*
G01*
X915000Y-2185000D01*
X915000Y-2185000D02*
G01*
X965000Y-2185000D01*
X965000Y-2185000D02*
G01*
X990000Y-2160000D01*
X990000Y-2160000D02*
G01*
X1015000Y-2185000D01*
X1015000Y-2185000D02*
G01*
X1065000Y-2185000D01*
X1065000Y-2185000D02*
G01*
X1090000Y-2160000D01*
X1090000Y-2160000D02*
G01*
X1115000Y-2185000D01*
X1115000Y-2185000D02*
G01*
X1165000Y-2185000D01*
X1165000Y-2185000D02*
G01*
X1190000Y-2160000D01*
X1190000Y-2160000D02*
G01*
X1215000Y-2185000D01*
X1215000Y-2185000D02*
G01*
X1265000Y-2185000D01*
X1265000Y-2185000D02*
G01*
X1290000Y-2160000D01*
X1290000Y-2160000D02*
G01*
X1315000Y-2185000D01*
X1315000Y-2185000D02*
G01*
X1365000Y-2185000D01*
X1365000Y-2185000D02*
G01*
X1390000Y-2160000D01*
X790000Y-2160000D02*
G01*
X790000Y-2010000D01*
X790000Y-2010000D02*
G01*
X815000Y-1985000D01*
X815000Y-1985000D02*
G01*
X865000Y-1985000D01*
X865000Y-1985000D02*
G01*
X890000Y-2010000D01*
X890000Y-2010000D02*
G01*
X915000Y-1985000D01*
X915000Y-1985000D02*
G01*
X965000Y-1985000D01*
X965000Y-1985000D02*
G01*
X990000Y-2010000D01*
X990000Y-2010000D02*
G01*
X1015000Y-1985000D01*
X1015000Y-1985000D02*
G01*
X1065000Y-1985000D01*
X1065000Y-1985000D02*
G01*
X1090000Y-2010000D01*
X1090000Y-2010000D02*
G01*
X1115000Y-1985000D01*
X1115000Y-1985000D02*
G01*
X1165000Y-1985000D01*
X1165000Y-1985000D02*
G01*
X1190000Y-2010000D01*
X1190000Y-2010000D02*
G01*
X1215000Y-1985000D01*
X1215000Y-1985000D02*
G01*
X1265000Y-1985000D01*
X1265000Y-1985000D02*
G01*
X1290000Y-2010000D01*
X1290000Y-2010000D02*
G01*
X1315000Y-1985000D01*
X1315000Y-1985000D02*
G01*
X1365000Y-1985000D01*
X1365000Y-1985000D02*
G01*
X1390000Y-2010000D01*
X1390000Y-2010000D02*
G01*
X1415000Y-1985000D01*
X1415000Y-1985000D02*
G01*
X1465000Y-1985000D01*
X1465000Y-1985000D02*
G01*
X1490000Y-2010000D01*
X1490000Y-2010000D02*
G01*
X1515000Y-1985000D01*
X1515000Y-1985000D02*
G01*
X1565000Y-1985000D01*
X1565000Y-1985000D02*
G01*
X1590000Y-2010000D01*
X1590000Y-2010000D02*
G01*
X1615000Y-1985000D01*
X1615000Y-1985000D02*
G01*
X1665000Y-1985000D01*
X1665000Y-1985000D02*
G01*
X1690000Y-2010000D01*
X1690000Y-2010000D02*
G01*
X1715000Y-1985000D01*
X1715000Y-1985000D02*
G01*
X1765000Y-1985000D01*
X1765000Y-1985000D02*
G01*
X1790000Y-2010000D01*
X1790000Y-2010000D02*
G01*
X1815000Y-1985000D01*
X1815000Y-1985000D02*
G01*
X1865000Y-1985000D01*
X1865000Y-1985000D02*
G01*
X1890000Y-2010000D01*
X1890000Y-2010000D02*
G01*
X1915000Y-1985000D01*
X1915000Y-1985000D02*
G01*
X1965000Y-1985000D01*
X1990000Y-2010000D02*
G01*
X1965000Y-1985000D01*
X1990000Y-2010000D02*
G01*
X2015000Y-1985000D01*
X2065000Y-1985000D02*
G01*
X2015000Y-1985000D01*
X2065000Y-1985000D02*
G01*
X2090000Y-2010000D01*
X2090000Y-2010000D02*
G01*
X2115000Y-1985000D01*
X2165000Y-1985000D02*
G01*
X2115000Y-1985000D01*
X2165000Y-1985000D02*
G01*
X2190000Y-2010000D01*
X2190000Y-2010000D02*
G01*
X2215000Y-1985000D01*
X2265000Y-1985000D02*
G01*
X2215000Y-1985000D01*
X2265000Y-1985000D02*
G01*
X2290000Y-2010000D01*
X2290000Y-2010000D02*
G01*
X2315000Y-1985000D01*
X2365000Y-1985000D02*
G01*
X2315000Y-1985000D01*
X2365000Y-1985000D02*
G01*
X2390000Y-2010000D01*
X2390000Y-2160000D02*
G01*
X2365000Y-2185000D01*
X2315000Y-2185000D02*
G01*
X2365000Y-2185000D01*
X2315000Y-2185000D02*
G01*
X2290000Y-2160000D01*
X2290000Y-2160000D02*
G01*
X2265000Y-2185000D01*
X2215000Y-2185000D02*
G01*
X2265000Y-2185000D01*
X2215000Y-2185000D02*
G01*
X2190000Y-2160000D01*
X2190000Y-2160000D02*
G01*
X2165000Y-2185000D01*
X2165000Y-2185000D02*
G01*
X2115000Y-2185000D01*
X2090000Y-2160000D02*
G01*
X2115000Y-2185000D01*
X2090000Y-2160000D02*
G01*
X2065000Y-2185000D01*
X2065000Y-2185000D02*
G01*
X2015000Y-2185000D01*
X1990000Y-2160000D02*
G01*
X2015000Y-2185000D01*
X1990000Y-2160000D02*
G01*
X1965000Y-2185000D01*
X1965000Y-2185000D02*
G01*
X1915000Y-2185000D01*
X1890000Y-2160000D02*
G01*
X1915000Y-2185000D01*
X1890000Y-2160000D02*
G01*
X1865000Y-2185000D01*
X1865000Y-2185000D02*
G01*
X1815000Y-2185000D01*
X1790000Y-2160000D02*
G01*
X1815000Y-2185000D01*
X1790000Y-2160000D02*
G01*
X1765000Y-2185000D01*
X1765000Y-2185000D02*
G01*
X1715000Y-2185000D01*
X1690000Y-2160000D02*
G01*
X1715000Y-2185000D01*
X1690000Y-2160000D02*
G01*
X1665000Y-2185000D01*
X1665000Y-2185000D02*
G01*
X1615000Y-2185000D01*
X1590000Y-2160000D02*
G01*
X1615000Y-2185000D01*
X1590000Y-2160000D02*
G01*
X1565000Y-2185000D01*
X1565000Y-2185000D02*
G01*
X1515000Y-2185000D01*
X1490000Y-2160000D02*
G01*
X1515000Y-2185000D01*
X1490000Y-2160000D02*
G01*
X1465000Y-2185000D01*
X1465000Y-2185000D02*
G01*
X1415000Y-2185000D01*
X1390000Y-2160000D02*
G01*
X1415000Y-2185000D01*
X890000Y-2010000D02*
G01*
X890000Y-2160000D01*
X990000Y-2010000D02*
G01*
X990000Y-2160000D01*
X1090000Y-2010000D02*
G01*
X1090000Y-2160000D01*
X1190000Y-2010000D02*
G01*
X1190000Y-2160000D01*
X1290000Y-2010000D02*
G01*
X1290000Y-2160000D01*
X1390000Y-2010000D02*
G01*
X1390000Y-2160000D01*
X1490000Y-2010000D02*
G01*
X1490000Y-2160000D01*
X1590000Y-2010000D02*
G01*
X1590000Y-2160000D01*
X1690000Y-2010000D02*
G01*
X1690000Y-2160000D01*
X1790000Y-2010000D02*
G01*
X1790000Y-2160000D01*
X1890000Y-2010000D02*
G01*
X1890000Y-2160000D01*
X1990000Y-2010000D02*
G01*
X1990000Y-2160000D01*
X2090000Y-2010000D02*
G01*
X2090000Y-2160000D01*
X2190000Y-2010000D02*
G01*
X2190000Y-2160000D01*
X2290000Y-2010000D02*
G01*
X2290000Y-2160000D01*
X2390000Y-2010000D02*
G01*
X2390000Y-2160000D01*
X2390000Y-2010000D02*
G01*
X2415000Y-1985000D01*
X2465000Y-1985000D02*
G01*
X2415000Y-1985000D01*
X2465000Y-1985000D02*
G01*
X2490000Y-2010000D01*
X2490000Y-2160000D02*
G01*
X2465000Y-2185000D01*
X2415000Y-2185000D02*
G01*
X2465000Y-2185000D01*
X2415000Y-2185000D02*
G01*
X2390000Y-2160000D01*
X2490000Y-2010000D02*
G01*
X2490000Y-2160000D01*
X2490000Y-2010000D02*
G01*
X2515000Y-1985000D01*
X2565000Y-1985000D02*
G01*
X2515000Y-1985000D01*
X2565000Y-1985000D02*
G01*
X2590000Y-2010000D01*
X2590000Y-2160000D02*
G01*
X2565000Y-2185000D01*
X2515000Y-2185000D02*
G01*
X2565000Y-2185000D01*
X2515000Y-2185000D02*
G01*
X2490000Y-2160000D01*
X2590000Y-2010000D02*
G01*
X2590000Y-2160000D01*
X2590000Y-2010000D02*
G01*
X2615000Y-1985000D01*
X2665000Y-1985000D02*
G01*
X2615000Y-1985000D01*
X2665000Y-1985000D02*
G01*
X2690000Y-2010000D01*
X2690000Y-2160000D02*
G01*
X2665000Y-2185000D01*
X2615000Y-2185000D02*
G01*
X2665000Y-2185000D01*
X2615000Y-2185000D02*
G01*
X2590000Y-2160000D01*
X2690000Y-2010000D02*
G01*
X2690000Y-2160000D01*
X2690000Y-2010000D02*
G01*
X2715000Y-1985000D01*
X2765000Y-1985000D02*
G01*
X2715000Y-1985000D01*
X2765000Y-1985000D02*
G01*
X2790000Y-2010000D01*
X2790000Y-2160000D02*
G01*
X2765000Y-2185000D01*
X2715000Y-2185000D02*
G01*
X2765000Y-2185000D01*
X2715000Y-2185000D02*
G01*
X2690000Y-2160000D01*
X2790000Y-2010000D02*
G01*
X2790000Y-2160000D01*
X2790000Y-2010000D02*
G01*
X2815000Y-1985000D01*
X2865000Y-1985000D02*
G01*
X2815000Y-1985000D01*
X2865000Y-1985000D02*
G01*
X2890000Y-2010000D01*
X2890000Y-2160000D02*
G01*
X2865000Y-2185000D01*
X2815000Y-2185000D02*
G01*
X2865000Y-2185000D01*
X2815000Y-2185000D02*
G01*
X2790000Y-2160000D01*
X2890000Y-2010000D02*
G01*
X2890000Y-2160000D01*
X2890000Y-2010000D02*
G01*
X2915000Y-1985000D01*
X2965000Y-1985000D02*
G01*
X2915000Y-1985000D01*
X2965000Y-1985000D02*
G01*
X2990000Y-2010000D01*
X2990000Y-2160000D02*
G01*
X2965000Y-2185000D01*
X2915000Y-2185000D02*
G01*
X2965000Y-2185000D01*
X2915000Y-2185000D02*
G01*
X2890000Y-2160000D01*
X2990000Y-2010000D02*
G01*
X2990000Y-2160000D01*
X2990000Y-2010000D02*
G01*
X3015000Y-1985000D01*
X3065000Y-1985000D02*
G01*
X3015000Y-1985000D01*
X3065000Y-1985000D02*
G01*
X3090000Y-2010000D01*
X3090000Y-2160000D02*
G01*
X3065000Y-2185000D01*
X3015000Y-2185000D02*
G01*
X3065000Y-2185000D01*
X3015000Y-2185000D02*
G01*
X2990000Y-2160000D01*
X3090000Y-2010000D02*
G01*
X3090000Y-2160000D01*
X2990000Y-2210000D02*
G01*
X665000Y-2210000D01*
X3490000Y-560000D02*
G01*
X3490000Y-1710000D01*
X2990000Y-60000D02*
G01*
X665000Y-60000D01*
X665000Y-60000D02*
G01*
X665000Y-560000D01*
X665000Y-1710000D02*
G01*
X665000Y-2210000D01*
X890000Y-785000D02*
G01*
X890000Y-1485000D01*
X3308029Y-670158D02*
G01*
X3308029Y-1489841D01*
X3308029Y-1489841D02*
G01*
X3211970Y-1489841D01*
X3211970Y-1489841D02*
G01*
X3211970Y-670158D01*
X3211970Y-670158D02*
G01*
X3308029Y-670158D01*
D14*
X927953Y-535117D02*
G01*
X927953Y-552831D01*
X937795Y-543778D02*
G01*
X918110Y-543778D01*
X991337Y-438661D02*
G01*
X991337Y-521338D01*
X952791Y-521338D02*
G01*
X947208Y-521338D01*
X952791Y-438661D02*
G01*
X947208Y-438661D01*
X908661Y-438661D02*
G01*
X908661Y-521338D01*
D13*
X999690Y-1859050D02*
G01*
X959690Y-1859050D01*
X979369Y-1878739D02*
G01*
X979369Y-1838739D01*
G75*
G01*
X3490000Y-560000D02*
G03*
X2990000Y-60000I-499999J1D01*
G75*
G01*
X2990000Y-2210000D02*
G03*
X3490000Y-1710000I1J499999D01*
G75*
G01*
X890000Y-785000D02*
G03*
X665000Y-560000I-225000J0D01*
G75*
G01*
X890000Y-1485000D02*
G02*
X665000Y-1710000I-225000J0D01*
G75*
G01
X1957170Y-610000D02*
G03X1957170Y-610000I-177170J0D01*
G75*
G01
X1809160Y-610000D02*
G03X1809160Y-610000I-29160J0D01*
D15*
G75*
G01
X1038430Y-1800000D02*
G03X1038430Y-1800000I-98430J0D01*
M02*
